<svg width="126" height="60" viewBox="0 0 126 60" fill="none" xmlns="http://www.w3.org/2000/svg">
<g clip-path="url(#clip0)">
<g opacity="0.3">
<path d="M123.381 5.14964C123.371 4.60966 123.361 4.09956 123.361 3.60607C123.361 3.21945 123.048 2.90602 122.661 2.90602C119.667 2.90602 117.388 2.04561 115.488 0.19822C115.216 -0.0661198 114.784 -0.0660265 114.512 0.19822C112.612 2.04561 110.333 2.90602 107.339 2.90602C106.953 2.90602 106.639 3.21945 106.639 3.60607C106.639 4.09965 106.629 4.60994 106.619 5.15001C106.523 10.1751 106.392 17.0571 114.771 19.9614C114.845 19.9872 114.922 20.0001 115 20.0001C115.077 20.0001 115.155 19.9872 115.229 19.9614C123.609 17.057 123.477 10.1748 123.381 5.14964ZM115 18.5571C107.814 15.9467 107.923 10.2282 108.019 5.1767C108.025 4.87354 108.03 4.5797 108.034 4.29165C110.838 4.1733 113.08 3.32362 115 1.65153C116.92 3.32362 119.162 4.17339 121.966 4.29165C121.97 4.57961 121.976 4.87326 121.982 5.17624C122.078 10.2279 122.186 15.9466 115 18.5571Z" fill="#85878F"/>
</g>
<path d="M117.41 7.56828L114.031 10.9469L112.59 9.50509C112.316 9.23179 111.873 9.23179 111.6 9.50509C111.326 9.77858 111.326 10.2218 111.6 10.4951L113.536 12.432C113.673 12.5686 113.852 12.6369 114.031 12.6369C114.21 12.6369 114.39 12.5686 114.526 12.432L118.4 8.55834C118.674 8.28495 118.674 7.84167 118.4 7.56837C118.127 7.29498 117.684 7.29489 117.41 7.56828Z" fill="#85878F"/>
</g>
<path d="M50.8123 40H52.3803L48.7403 30.354H47.1303L43.4903 40H45.0723L45.9963 37.592H49.8883L50.8123 40ZM47.9423 32.216L49.3843 36.262H46.5003L47.9423 32.216ZM54.9207 33.462H53.4787V43.178H54.9207V39.062C55.3267 39.79 56.2227 40.14 57.1047 40.14C58.8687 40.14 60.3527 38.824 60.3527 36.738C60.3527 34.68 58.8687 33.322 57.1047 33.322C56.2227 33.322 55.3267 33.728 54.9207 34.428V33.462ZM54.9347 36.766C54.9347 35.492 55.8587 34.722 56.9227 34.722C58.0147 34.722 58.8827 35.548 58.8827 36.766C58.8827 37.97 58.0147 38.754 56.9227 38.754C55.9287 38.754 54.9347 38.054 54.9347 36.766ZM63.4109 33.462H61.9689V43.178H63.4109V39.062C63.8169 39.79 64.7129 40.14 65.5949 40.14C67.3589 40.14 68.8429 38.824 68.8429 36.738C68.8429 34.68 67.3589 33.322 65.5949 33.322C64.7129 33.322 63.8169 33.728 63.4109 34.428V33.462ZM63.4249 36.766C63.4249 35.492 64.3489 34.722 65.4129 34.722C66.5049 34.722 67.3729 35.548 67.3729 36.766C67.3729 37.97 66.5049 38.754 65.4129 38.754C64.4189 38.754 63.4249 38.054 63.4249 36.766ZM71.9012 37.648C71.9012 35.912 72.4192 34.68 73.6512 34.68C73.9312 34.68 74.2532 34.722 74.6172 34.904L74.8552 33.574C74.6452 33.434 74.1552 33.322 73.6932 33.322C72.8812 33.322 72.2372 33.798 71.9012 34.96V33.462H70.4592V40H71.9012V37.648ZM78.8963 38.74C77.8183 38.74 76.9223 37.942 76.9223 36.71C76.9223 35.506 77.8183 34.736 78.8963 34.736C79.9883 34.736 80.8843 35.506 80.8843 36.71C80.8843 37.942 79.9883 38.74 78.8963 38.74ZM78.8963 40.14C80.7583 40.14 82.3263 38.782 82.3263 36.71C82.3263 34.638 80.7583 33.322 78.8963 33.322C77.0483 33.322 75.4943 34.638 75.4943 36.71C75.4943 38.782 77.0483 40.14 78.8963 40.14ZM85.6933 40H87.0233L89.7533 33.462H88.2133L86.3653 38.166L84.4893 33.462H82.9633L85.6933 40ZM97.0189 36.71C97.0189 34.638 95.6049 33.322 93.7429 33.322C91.8809 33.322 90.3829 34.638 90.3829 36.71C90.3829 38.782 91.8809 40.14 93.7429 40.14C94.9749 40.14 96.1929 39.608 96.7669 38.46C96.3889 38.292 95.9549 38.11 95.5909 37.942C95.2549 38.544 94.5409 38.88 93.8129 38.88C92.7629 38.88 91.9509 38.25 91.8109 37.242H97.0049C97.0189 37.102 97.0189 36.864 97.0189 36.71ZM91.8109 36.192C91.9509 35.184 92.7349 34.582 93.7429 34.582C94.7229 34.582 95.4649 35.17 95.6049 36.192H91.8109ZM103.609 40H105.037V29.906H103.609V34.4C103.203 33.686 102.321 33.322 101.397 33.322C99.6332 33.322 98.1352 34.638 98.1352 36.738C98.1352 38.796 99.6332 40.14 101.397 40.14C102.293 40.14 103.203 39.748 103.609 39.048V40ZM103.581 36.71C103.581 37.984 102.643 38.74 101.579 38.74C100.487 38.74 99.6192 37.914 99.6192 36.71C99.6192 35.506 100.487 34.722 101.579 34.722C102.559 34.722 103.581 35.422 103.581 36.71ZM117.235 32.902C117.235 31.334 116.199 30.354 114.561 30.354H110.865V40H114.855C116.675 40 117.753 38.698 117.753 37.172C117.753 36.248 117.123 35.114 115.989 34.862C116.927 34.498 117.235 33.658 117.235 32.902ZM112.363 34.316V31.712H114.407C115.205 31.712 115.695 32.174 115.695 32.958C115.695 33.686 115.289 34.316 114.505 34.316H112.363ZM114.743 35.59C115.667 35.59 116.199 36.444 116.199 37.158C116.199 37.9 115.681 38.642 114.785 38.642H112.363V35.59H114.743ZM125.176 33.462H123.636L121.802 37.942L119.982 33.462H118.442L121.032 39.692L119.618 43.192H121.13L125.176 33.462ZM8.66197 47.74H10.93C12.82 47.74 13.786 49.28 13.786 51.198C13.786 53.116 12.82 54.628 10.93 54.628H8.66197V47.74ZM10.93 56C13.674 56 15.27 53.928 15.27 51.198C15.27 48.454 13.674 46.354 10.93 46.354H7.17797V56H10.93ZM22.0161 56H23.4441V49.462H22.0161V50.386C21.5681 49.644 20.6021 49.322 19.8181 49.322C18.0541 49.322 16.5001 50.638 16.5001 52.724C16.5001 54.81 18.0541 56.14 19.8181 56.14C20.6301 56.14 21.5821 55.776 22.0161 55.062V56ZM17.9841 52.71C17.9841 51.506 18.8941 50.722 19.9861 50.722C20.9661 50.722 22.0021 51.422 22.0021 52.71C22.0021 53.998 21.0501 54.74 19.9861 54.74C18.8941 54.74 17.9841 53.914 17.9841 52.71ZM26.907 52.486C26.907 51.198 27.733 50.736 28.587 50.736C29.427 50.736 29.959 51.324 29.959 52.36V56H31.401V52.192C31.401 50.344 30.491 49.322 28.909 49.322C28.181 49.322 27.285 49.686 26.907 50.442V49.462H25.465V56H26.907V52.486ZM34.7817 56H33.3537V49.462H34.7817V56ZM33.1017 46.816C33.1017 47.334 33.5497 47.726 34.0677 47.726C34.5997 47.726 35.0197 47.334 35.0197 46.816C35.0197 46.298 34.5997 45.906 34.0677 45.906C33.5497 45.906 33.1017 46.298 33.1017 46.816ZM38.325 53.172L39.207 53.382C39.683 53.494 40.117 53.732 40.117 54.152C40.117 54.642 39.613 54.936 38.955 54.936C38.199 54.936 37.737 54.558 37.667 53.998H36.337C36.365 55.37 37.625 56.14 38.843 56.14C40.341 56.14 41.447 55.426 41.447 54.166C41.447 53.508 41.153 52.612 39.739 52.262L38.731 52.01C38.381 51.912 38.017 51.758 37.933 51.506C37.863 51.31 37.877 51.1 37.989 50.918C38.129 50.694 38.549 50.554 38.913 50.554C39.361 50.554 39.809 50.764 39.865 51.254H41.237C41.153 49.854 40.019 49.322 38.857 49.322C37.653 49.322 36.603 50.078 36.519 51.044C36.435 52.094 36.939 52.794 38.325 53.172ZM44.4617 52.486C44.4617 51.198 45.4557 50.736 46.2817 50.736C47.0937 50.736 47.7377 51.338 47.7377 52.36V56C47.9757 56 48.9417 56 49.1797 56V52.276C49.1797 50.414 48.1997 49.322 46.5337 49.322C45.8477 49.322 44.8257 49.658 44.4617 50.456V45.906H43.0197V56H44.4617V52.486ZM62.5642 47.6C61.7242 46.76 60.5342 46.242 59.2042 46.242C56.4602 46.242 54.3182 48.454 54.3182 51.198C54.3182 53.928 56.4602 56.14 59.2042 56.14C61.9622 56.14 63.8102 54.544 63.8102 51.1H59.4002V52.374H62.1022C62.0322 53.816 60.7722 54.74 59.2042 54.74C57.2862 54.74 55.8022 53.144 55.8022 51.198C55.8022 49.252 57.2862 47.656 59.2042 47.656C60.0862 47.656 60.8842 48.006 61.4722 48.566L62.5642 47.6ZM68.2185 54.74C67.1405 54.74 66.2445 53.942 66.2445 52.71C66.2445 51.506 67.1405 50.736 68.2185 50.736C69.3105 50.736 70.2065 51.506 70.2065 52.71C70.2065 53.942 69.3105 54.74 68.2185 54.74ZM68.2185 56.14C70.0805 56.14 71.6485 54.782 71.6485 52.71C71.6485 50.638 70.0805 49.322 68.2185 49.322C66.3705 49.322 64.8165 50.638 64.8165 52.71C64.8165 54.782 66.3705 56.14 68.2185 56.14ZM75.0155 56H76.3455L79.0755 49.462H77.5355L75.6875 54.166L73.8115 49.462H72.2855L75.0155 56ZM86.3412 52.71C86.3412 50.638 84.9272 49.322 83.0652 49.322C81.2032 49.322 79.7052 50.638 79.7052 52.71C79.7052 54.782 81.2032 56.14 83.0652 56.14C84.2972 56.14 85.5152 55.608 86.0892 54.46C85.7112 54.292 85.2772 54.11 84.9132 53.942C84.5772 54.544 83.8632 54.88 83.1352 54.88C82.0852 54.88 81.2732 54.25 81.1332 53.242H86.3272C86.3412 53.102 86.3412 52.864 86.3412 52.71ZM81.1332 52.192C81.2732 51.184 82.0572 50.582 83.0652 50.582C84.0452 50.582 84.7872 51.17 84.9272 52.192H81.1332ZM89.3055 53.648C89.3055 51.912 89.8235 50.68 91.0555 50.68C91.3355 50.68 91.6575 50.722 92.0215 50.904L92.2595 49.574C92.0495 49.434 91.5595 49.322 91.0975 49.322C90.2855 49.322 89.6415 49.798 89.3055 50.96V49.462H87.8635V56H89.3055V53.648ZM100.903 50.736C101.743 50.736 102.289 51.338 102.289 52.36V56H103.731V52.234C103.731 50.372 102.821 49.322 101.211 49.322C100.609 49.322 99.6293 49.49 99.0133 50.624C98.6493 49.798 97.9913 49.322 96.9553 49.322C96.4373 49.322 95.3313 49.532 94.8973 50.442V49.462H93.4553V56H94.8973V52.486C94.8973 51.212 95.7093 50.736 96.5493 50.736C97.3193 50.736 97.8653 51.324 97.8793 52.332V56H99.3213V52.486C99.3213 51.436 99.9513 50.736 100.903 50.736ZM111.894 52.71C111.894 50.638 110.48 49.322 108.618 49.322C106.756 49.322 105.258 50.638 105.258 52.71C105.258 54.782 106.756 56.14 108.618 56.14C109.85 56.14 111.068 55.608 111.642 54.46C111.264 54.292 110.83 54.11 110.466 53.942C110.13 54.544 109.416 54.88 108.688 54.88C107.638 54.88 106.826 54.25 106.686 53.242H111.88C111.894 53.102 111.894 52.864 111.894 52.71ZM106.686 52.192C106.826 51.184 107.61 50.582 108.618 50.582C109.598 50.582 110.34 51.17 110.48 52.192H106.686ZM114.858 52.486C114.858 51.198 115.684 50.736 116.538 50.736C117.378 50.736 117.91 51.324 117.91 52.36V56H119.352V52.192C119.352 50.344 118.442 49.322 116.86 49.322C116.132 49.322 115.236 49.686 114.858 50.442V49.462H113.416V56H114.858V52.486ZM123.265 46.984H121.823V49.462H120.647V50.652H121.823V56H123.265V50.652H124.651V49.462H123.265V46.984Z" fill="#85878F"/>
<defs>
<clipPath id="clip0">
<rect width="20" height="20" fill="white" transform="translate(105)"/>
</clipPath>
</defs>
</svg>
