<svg width="234" height="20" viewBox="0 0 234 20" fill="none" xmlns="http://www.w3.org/2000/svg">
<g clip-path="url(#clip0)">
<g opacity="0.3">
<path d="M18.3815 5.14964C18.3713 4.60966 18.3615 4.09956 18.3615 3.60607C18.3615 3.21945 18.0481 2.90602 17.6614 2.90602C14.6675 2.90602 12.3881 2.04561 10.488 0.19822C10.2162 -0.0661198 9.7837 -0.0660265 9.51199 0.19822C7.61214 2.04561 5.33305 2.90602 2.33935 2.90602C1.95274 2.90602 1.6393 3.21945 1.6393 3.60607C1.6393 4.09965 1.62959 4.60994 1.61923 5.15001C1.52328 10.1751 1.39186 17.0571 9.77073 19.9614C9.84503 19.9872 9.9225 20.0001 9.99997 20.0001C10.0774 20.0001 10.155 19.9872 10.2292 19.9614C18.6087 17.057 18.4775 10.1748 18.3815 5.14964ZM10.0001 18.5571C2.81408 15.9467 2.92273 10.2282 3.01915 5.1767C3.02494 4.87354 3.03054 4.5797 3.03446 4.29165C5.8384 4.1733 8.08061 3.32362 10.0001 1.65153C11.9197 3.32362 14.1623 4.17339 16.9664 4.29165C16.9703 4.57961 16.9759 4.87326 16.9817 5.17624C17.078 10.2279 17.1866 15.9466 10.0001 18.5571Z" fill="white"/>
</g>
<path opacity="0.8" d="M12.4102 7.56828L9.03137 10.9469L7.58954 9.50509C7.31615 9.23179 6.87288 9.23179 6.59958 9.50509C6.32618 9.77858 6.32618 10.2218 6.59958 10.4951L8.53638 12.432C8.67303 12.5686 8.85225 12.6369 9.03137 12.6369C9.21049 12.6369 9.3897 12.5686 9.52635 12.432L13.4001 8.55834C13.6735 8.28495 13.6735 7.84167 13.4002 7.56837C13.1269 7.29498 12.6836 7.29489 12.4102 7.56828Z" fill="white"/>
</g>
<path opacity="0.6" d="M36.7908 14H38.3588L34.7188 4.354H33.1088L29.4688 14H31.0508L31.9748 11.592H35.8668L36.7908 14ZM33.9208 6.216L35.3628 10.262H32.4788L33.9208 6.216ZM40.8992 7.462H39.4572V17.178H40.8992V13.062C41.3052 13.79 42.2012 14.14 43.0832 14.14C44.8472 14.14 46.3312 12.824 46.3312 10.738C46.3312 8.68 44.8472 7.322 43.0832 7.322C42.2012 7.322 41.3052 7.728 40.8992 8.428V7.462ZM40.9132 10.766C40.9132 9.492 41.8372 8.722 42.9012 8.722C43.9932 8.722 44.8612 9.548 44.8612 10.766C44.8612 11.97 43.9932 12.754 42.9012 12.754C41.9072 12.754 40.9132 12.054 40.9132 10.766ZM49.3895 7.462H47.9475V17.178H49.3895V13.062C49.7955 13.79 50.6915 14.14 51.5735 14.14C53.3375 14.14 54.8215 12.824 54.8215 10.738C54.8215 8.68 53.3375 7.322 51.5735 7.322C50.6915 7.322 49.7955 7.728 49.3895 8.428V7.462ZM49.4035 10.766C49.4035 9.492 50.3275 8.722 51.3915 8.722C52.4835 8.722 53.3515 9.548 53.3515 10.766C53.3515 11.97 52.4835 12.754 51.3915 12.754C50.3975 12.754 49.4035 12.054 49.4035 10.766ZM57.8797 11.648C57.8797 9.912 58.3977 8.68 59.6297 8.68C59.9097 8.68 60.2317 8.722 60.5957 8.904L60.8337 7.574C60.6237 7.434 60.1337 7.322 59.6717 7.322C58.8597 7.322 58.2157 7.798 57.8797 8.96V7.462H56.4377V14H57.8797V11.648ZM64.8748 12.74C63.7968 12.74 62.9008 11.942 62.9008 10.71C62.9008 9.506 63.7968 8.736 64.8748 8.736C65.9668 8.736 66.8628 9.506 66.8628 10.71C66.8628 11.942 65.9668 12.74 64.8748 12.74ZM64.8748 14.14C66.7368 14.14 68.3048 12.782 68.3048 10.71C68.3048 8.638 66.7368 7.322 64.8748 7.322C63.0268 7.322 61.4728 8.638 61.4728 10.71C61.4728 12.782 63.0268 14.14 64.8748 14.14ZM71.6718 14H73.0018L75.7318 7.462H74.1918L72.3438 12.166L70.4678 7.462H68.9418L71.6718 14ZM82.9974 10.71C82.9974 8.638 81.5834 7.322 79.7214 7.322C77.8594 7.322 76.3614 8.638 76.3614 10.71C76.3614 12.782 77.8594 14.14 79.7214 14.14C80.9534 14.14 82.1714 13.608 82.7454 12.46C82.3674 12.292 81.9334 12.11 81.5694 11.942C81.2334 12.544 80.5194 12.88 79.7914 12.88C78.7414 12.88 77.9294 12.25 77.7894 11.242H82.9834C82.9974 11.102 82.9974 10.864 82.9974 10.71ZM77.7894 10.192C77.9294 9.184 78.7134 8.582 79.7214 8.582C80.7014 8.582 81.4434 9.17 81.5834 10.192H77.7894ZM89.5877 14H91.0157V3.906H89.5877V8.4C89.1817 7.686 88.2997 7.322 87.3757 7.322C85.6117 7.322 84.1137 8.638 84.1137 10.738C84.1137 12.796 85.6117 14.14 87.3757 14.14C88.2717 14.14 89.1817 13.748 89.5877 13.048V14ZM89.5597 10.71C89.5597 11.984 88.6217 12.74 87.5577 12.74C86.4657 12.74 85.5977 11.914 85.5977 10.71C85.5977 9.506 86.4657 8.722 87.5577 8.722C88.5377 8.722 89.5597 9.422 89.5597 10.71ZM103.214 6.902C103.214 5.334 102.178 4.354 100.54 4.354H96.844V14H100.834C102.654 14 103.732 12.698 103.732 11.172C103.732 10.248 103.102 9.114 101.968 8.862C102.906 8.498 103.214 7.658 103.214 6.902ZM98.342 8.316V5.712H100.386C101.184 5.712 101.674 6.174 101.674 6.958C101.674 7.686 101.268 8.316 100.484 8.316H98.342ZM100.722 9.59C101.646 9.59 102.178 10.444 102.178 11.158C102.178 11.9 101.66 12.642 100.764 12.642H98.342V9.59H100.722ZM111.154 7.462H109.614L107.78 11.942L105.96 7.462H104.42L107.01 13.692L105.596 17.192H107.108L111.154 7.462ZM117.277 5.74H119.545C121.435 5.74 122.401 7.28 122.401 9.198C122.401 11.116 121.435 12.628 119.545 12.628H117.277V5.74ZM119.545 14C122.289 14 123.885 11.928 123.885 9.198C123.885 6.454 122.289 4.354 119.545 4.354H115.793V14H119.545ZM130.631 14H132.059V7.462H130.631V8.386C130.183 7.644 129.217 7.322 128.433 7.322C126.669 7.322 125.115 8.638 125.115 10.724C125.115 12.81 126.669 14.14 128.433 14.14C129.245 14.14 130.197 13.776 130.631 13.062V14ZM126.599 10.71C126.599 9.506 127.509 8.722 128.601 8.722C129.581 8.722 130.617 9.422 130.617 10.71C130.617 11.998 129.665 12.74 128.601 12.74C127.509 12.74 126.599 11.914 126.599 10.71ZM135.522 10.486C135.522 9.198 136.348 8.736 137.202 8.736C138.042 8.736 138.574 9.324 138.574 10.36V14H140.016V10.192C140.016 8.344 139.106 7.322 137.524 7.322C136.796 7.322 135.9 7.686 135.522 8.442V7.462H134.08V14H135.522V10.486ZM143.397 14H141.969V7.462H143.397V14ZM141.717 4.816C141.717 5.334 142.165 5.726 142.683 5.726C143.215 5.726 143.635 5.334 143.635 4.816C143.635 4.298 143.215 3.906 142.683 3.906C142.165 3.906 141.717 4.298 141.717 4.816ZM146.94 11.172L147.822 11.382C148.298 11.494 148.732 11.732 148.732 12.152C148.732 12.642 148.228 12.936 147.57 12.936C146.814 12.936 146.352 12.558 146.282 11.998H144.952C144.98 13.37 146.24 14.14 147.458 14.14C148.956 14.14 150.062 13.426 150.062 12.166C150.062 11.508 149.768 10.612 148.354 10.262L147.346 10.01C146.996 9.912 146.632 9.758 146.548 9.506C146.478 9.31 146.492 9.1 146.604 8.918C146.744 8.694 147.164 8.554 147.528 8.554C147.976 8.554 148.424 8.764 148.48 9.254H149.852C149.768 7.854 148.634 7.322 147.472 7.322C146.268 7.322 145.218 8.078 145.134 9.044C145.05 10.094 145.554 10.794 146.94 11.172ZM153.077 10.486C153.077 9.198 154.071 8.736 154.897 8.736C155.709 8.736 156.353 9.338 156.353 10.36V14C156.591 14 157.557 14 157.795 14V10.276C157.795 8.414 156.815 7.322 155.149 7.322C154.463 7.322 153.441 7.658 153.077 8.456V3.906H151.635V14H153.077V10.486ZM171.179 5.6C170.339 4.76 169.149 4.242 167.819 4.242C165.075 4.242 162.933 6.454 162.933 9.198C162.933 11.928 165.075 14.14 167.819 14.14C170.577 14.14 172.425 12.544 172.425 9.1H168.015V10.374H170.717C170.647 11.816 169.387 12.74 167.819 12.74C165.901 12.74 164.417 11.144 164.417 9.198C164.417 7.252 165.901 5.656 167.819 5.656C168.701 5.656 169.499 6.006 170.087 6.566L171.179 5.6ZM176.834 12.74C175.756 12.74 174.86 11.942 174.86 10.71C174.86 9.506 175.756 8.736 176.834 8.736C177.926 8.736 178.822 9.506 178.822 10.71C178.822 11.942 177.926 12.74 176.834 12.74ZM176.834 14.14C178.696 14.14 180.264 12.782 180.264 10.71C180.264 8.638 178.696 7.322 176.834 7.322C174.986 7.322 173.432 8.638 173.432 10.71C173.432 12.782 174.986 14.14 176.834 14.14ZM183.631 14H184.961L187.691 7.462H186.151L184.303 12.166L182.427 7.462H180.901L183.631 14ZM194.956 10.71C194.956 8.638 193.542 7.322 191.68 7.322C189.818 7.322 188.32 8.638 188.32 10.71C188.32 12.782 189.818 14.14 191.68 14.14C192.912 14.14 194.13 13.608 194.704 12.46C194.326 12.292 193.892 12.11 193.528 11.942C193.192 12.544 192.478 12.88 191.75 12.88C190.7 12.88 189.888 12.25 189.748 11.242H194.942C194.956 11.102 194.956 10.864 194.956 10.71ZM189.748 10.192C189.888 9.184 190.672 8.582 191.68 8.582C192.66 8.582 193.402 9.17 193.542 10.192H189.748ZM197.921 11.648C197.921 9.912 198.439 8.68 199.671 8.68C199.951 8.68 200.273 8.722 200.637 8.904L200.875 7.574C200.665 7.434 200.175 7.322 199.713 7.322C198.901 7.322 198.257 7.798 197.921 8.96V7.462H196.479V14H197.921V11.648ZM209.519 8.736C210.359 8.736 210.905 9.338 210.905 10.36V14H212.347V10.234C212.347 8.372 211.437 7.322 209.827 7.322C209.225 7.322 208.245 7.49 207.629 8.624C207.265 7.798 206.607 7.322 205.571 7.322C205.053 7.322 203.947 7.532 203.513 8.442V7.462H202.071V14H203.513V10.486C203.513 9.212 204.325 8.736 205.165 8.736C205.935 8.736 206.481 9.324 206.495 10.332V14H207.937V10.486C207.937 9.436 208.567 8.736 209.519 8.736ZM220.509 10.71C220.509 8.638 219.095 7.322 217.233 7.322C215.371 7.322 213.873 8.638 213.873 10.71C213.873 12.782 215.371 14.14 217.233 14.14C218.465 14.14 219.683 13.608 220.257 12.46C219.879 12.292 219.445 12.11 219.081 11.942C218.745 12.544 218.031 12.88 217.303 12.88C216.253 12.88 215.441 12.25 215.301 11.242H220.495C220.509 11.102 220.509 10.864 220.509 10.71ZM215.301 10.192C215.441 9.184 216.225 8.582 217.233 8.582C218.213 8.582 218.955 9.17 219.095 10.192H215.301ZM223.473 10.486C223.473 9.198 224.299 8.736 225.153 8.736C225.993 8.736 226.525 9.324 226.525 10.36V14H227.967V10.192C227.967 8.344 227.057 7.322 225.475 7.322C224.747 7.322 223.851 7.686 223.473 8.442V7.462H222.031V14H223.473V10.486ZM231.88 4.984H230.438V7.462H229.262V8.652H230.438V14H231.88V8.652H233.266V7.462H231.88V4.984Z" fill="white"/>
<defs>
<clipPath id="clip0">
<rect width="20" height="20" fill="white"/>
</clipPath>
</defs>
</svg>
