<?xml version="1.0" encoding="iso-8859-1"?>
<!-- Generator: Adobe Illustrator 19.0.0, SVG Export Plug-In . SVG Version: 6.00 Build 0)  -->
<svg version="1.1" id="Layer_1" xmlns="http://www.w3.org/2000/svg" xmlns:xlink="http://www.w3.org/1999/xlink" x="0px" y="0px"
	 width="126px" height="60px" viewBox="-242 367 126 60" style="enable-background:new -242 367 126 60;" xml:space="preserve">
<g>
	<defs>
		<rect id="SVGID_1_" x="-242" y="368" width="20" height="20"/>
	</defs>
	<clipPath id="SVGID_2_">
		<use xlink:href="#SVGID_1_"  style="overflow:visible;"/>
	</clipPath>
	<g style="clip-path:url(#SVGID_2_);">
		<g style="opacity:0.6;">
			<path style="fill:#85878F;" d="M-223.619,373.15c-0.01-0.54-0.02-1.05-0.02-1.544c0-0.387-0.313-0.7-0.7-0.7
				c-2.994,0-5.273-0.86-7.173-2.708c-0.272-0.264-0.704-0.264-0.976,0c-1.9,1.847-4.179,2.708-7.173,2.708
				c-0.386,0-0.7,0.313-0.7,0.7c0,0.494-0.01,1.004-0.02,1.544c-0.096,5.025-0.227,11.907,8.152,14.811
				c0.074,0.026,0.151,0.039,0.229,0.039c0.077,0,0.155-0.013,0.229-0.039C-223.391,385.057-223.523,378.175-223.619,373.15z
				 M-232,386.557c-7.186-2.61-7.077-8.329-6.981-13.38c0.006-0.303,0.011-0.597,0.015-0.885c2.804-0.118,5.046-0.968,6.966-2.64
				c1.92,1.672,4.162,2.522,6.966,2.64c0.004,0.288,0.01,0.582,0.016,0.885C-224.922,378.228-224.814,383.947-232,386.557z"/>
		</g>
		<path style="fill:#85878F;" d="M-229.59,375.568l-3.379,3.379l-1.441-1.442c-0.274-0.273-0.717-0.273-0.99,0
			c-0.274,0.273-0.274,0.717,0,0.99l1.936,1.937c0.137,0.137,0.316,0.205,0.495,0.205c0.179,0,0.359-0.068,0.495-0.205l3.874-3.874
			c0.274-0.273,0.274-0.717,0-0.99C-228.873,375.295-229.316,375.295-229.59,375.568z"/>
	</g>
</g>
<path style="fill:#85878F;" d="M-233.366,408h1.568l-3.64-9.646h-1.61l-3.64,9.646h1.582l0.924-2.408h3.892L-233.366,408z
	 M-236.236,400.216l1.442,4.046h-2.884L-236.236,400.216z M-229.257,401.462h-1.442v9.716h1.442v-4.116
	c0.406,0.728,1.302,1.078,2.184,1.078c1.764,0,3.248-1.316,3.248-3.402c0-2.058-1.484-3.416-3.248-3.416
	c-0.882,0-1.778,0.406-2.184,1.106V401.462z M-229.243,404.766c0-1.274,0.924-2.044,1.988-2.044c1.092,0,1.96,0.826,1.96,2.044
	c0,1.204-0.868,1.988-1.96,1.988C-228.249,406.754-229.243,406.054-229.243,404.766z M-220.767,401.462h-1.442v9.716h1.442v-4.116
	c0.406,0.728,1.302,1.078,2.184,1.078c1.764,0,3.248-1.316,3.248-3.402c0-2.058-1.484-3.416-3.248-3.416
	c-0.882,0-1.778,0.406-2.184,1.106V401.462z M-220.753,404.766c0-1.274,0.924-2.044,1.988-2.044c1.092,0,1.96,0.826,1.96,2.044
	c0,1.204-0.868,1.988-1.96,1.988C-219.759,406.754-220.753,406.054-220.753,404.766z M-212.277,405.648
	c0-1.736,0.518-2.968,1.75-2.968c0.28,0,0.602,0.042,0.966,0.224l0.238-1.33c-0.21-0.14-0.7-0.252-1.162-0.252
	c-0.812,0-1.456,0.476-1.792,1.638v-1.498h-1.442V408h1.442V405.648z M-205.282,406.74c-1.078,0-1.974-0.798-1.974-2.03
	c0-1.204,0.896-1.974,1.974-1.974c1.092,0,1.988,0.77,1.988,1.974C-203.294,405.942-204.19,406.74-205.282,406.74z M-205.282,408.14
	c1.862,0,3.43-1.358,3.43-3.43c0-2.072-1.568-3.388-3.43-3.388c-1.848,0-3.402,1.316-3.402,3.388
	C-208.684,406.782-207.13,408.14-205.282,408.14z M-198.485,408h1.33l2.73-6.538h-1.54l-1.848,4.704l-1.876-4.704h-1.526
	L-198.485,408z M-187.159,404.71c0-2.072-1.414-3.388-3.276-3.388s-3.36,1.316-3.36,3.388c0,2.072,1.498,3.43,3.36,3.43
	c1.232,0,2.45-0.532,3.024-1.68c-0.378-0.168-0.812-0.35-1.176-0.518c-0.336,0.602-1.05,0.938-1.778,0.938
	c-1.05,0-1.862-0.63-2.002-1.638h5.194C-187.159,405.102-187.159,404.864-187.159,404.71z M-192.367,404.192
	c0.14-1.008,0.924-1.61,1.932-1.61c0.98,0,1.722,0.588,1.862,1.61H-192.367z M-180.569,408h1.428v-10.094h-1.428v4.494
	c-0.406-0.714-1.288-1.078-2.212-1.078c-1.764,0-3.262,1.316-3.262,3.416c0,2.058,1.498,3.402,3.262,3.402
	c0.896,0,1.806-0.392,2.212-1.092V408z M-180.597,404.71c0,1.274-0.938,2.03-2.002,2.03c-1.092,0-1.96-0.826-1.96-2.03
	c0-1.204,0.868-1.988,1.96-1.988C-181.619,402.722-180.597,403.422-180.597,404.71z M-166.943,400.902
	c0-1.568-1.036-2.548-2.674-2.548h-3.696V408h3.99c1.82,0,2.898-1.302,2.898-2.828c0-0.924-0.63-2.058-1.764-2.31
	C-167.251,402.498-166.943,401.658-166.943,400.902z M-171.815,402.316v-2.604h2.044c0.798,0,1.288,0.462,1.288,1.246
	c0,0.728-0.406,1.358-1.19,1.358H-171.815z M-169.435,403.59c0.924,0,1.456,0.854,1.456,1.568c0,0.742-0.518,1.484-1.414,1.484
	h-2.422v-3.052H-169.435z M-159.002,401.462h-1.54l-1.834,4.48l-1.82-4.48h-1.54l2.59,6.23l-1.414,3.5h1.512L-159.002,401.462z
	 M-238.516,415.74h2.268c1.89,0,2.856,1.54,2.856,3.458s-0.966,3.43-2.856,3.43h-2.268V415.74z M-236.248,424
	c2.744,0,4.34-2.072,4.34-4.802c0-2.744-1.596-4.844-4.34-4.844H-240V424H-236.248z M-225.162,424h1.428v-6.538h-1.428v0.924
	c-0.448-0.742-1.414-1.064-2.198-1.064c-1.764,0-3.318,1.316-3.318,3.402s1.554,3.416,3.318,3.416c0.812,0,1.764-0.364,2.198-1.078
	V424z M-229.194,420.71c0-1.204,0.91-1.988,2.002-1.988c0.98,0,2.016,0.7,2.016,1.988s-0.952,2.03-2.016,2.03
	C-228.284,422.74-229.194,421.914-229.194,420.71z M-220.271,420.486c0-1.288,0.826-1.75,1.68-1.75c0.84,0,1.372,0.588,1.372,1.624
	V424h1.442v-3.808c0-1.848-0.91-2.87-2.492-2.87c-0.728,0-1.624,0.364-2.002,1.12v-0.98h-1.442V424h1.442V420.486z M-212.396,424
	h-1.428v-6.538h1.428V424z M-214.076,414.816c0,0.518,0.448,0.91,0.966,0.91c0.532,0,0.952-0.392,0.952-0.91
	c0-0.518-0.42-0.91-0.952-0.91C-213.628,413.906-214.076,414.298-214.076,414.816z M-208.853,421.172l0.882,0.21
	c0.476,0.112,0.91,0.35,0.91,0.77c0,0.49-0.504,0.784-1.162,0.784c-0.756,0-1.218-0.378-1.288-0.938h-1.33
	c0.028,1.372,1.288,2.142,2.506,2.142c1.498,0,2.604-0.714,2.604-1.974c0-0.658-0.294-1.554-1.708-1.904l-1.008-0.252
	c-0.35-0.098-0.714-0.252-0.798-0.504c-0.07-0.196-0.056-0.406,0.056-0.588c0.14-0.224,0.56-0.364,0.924-0.364
	c0.448,0,0.896,0.21,0.952,0.7h1.372c-0.084-1.4-1.218-1.932-2.38-1.932c-1.204,0-2.254,0.756-2.338,1.722
	C-210.743,420.094-210.239,420.794-208.853,421.172z M-202.716,420.486c0-1.288,0.994-1.75,1.82-1.75
	c0.812,0,1.456,0.602,1.456,1.624V424c0.238,0,1.204,0,1.442,0v-3.724c0-1.862-0.98-2.954-2.646-2.954
	c-0.686,0-1.708,0.336-2.072,1.134v-4.55h-1.442V424h1.442V420.486z M-184.614,415.6c-0.84-0.84-2.03-1.358-3.36-1.358
	c-2.744,0-4.886,2.212-4.886,4.956c0,2.73,2.142,4.942,4.886,4.942c2.758,0,4.606-1.596,4.606-5.04h-4.41v1.274h2.702
	c-0.07,1.442-1.33,2.366-2.898,2.366c-1.918,0-3.402-1.596-3.402-3.542c0-1.946,1.484-3.542,3.402-3.542
	c0.882,0,1.68,0.35,2.268,0.91L-184.614,415.6z M-178.959,422.74c-1.078,0-1.974-0.798-1.974-2.03c0-1.204,0.896-1.974,1.974-1.974
	c1.092,0,1.988,0.77,1.988,1.974C-176.971,421.942-177.867,422.74-178.959,422.74z M-178.959,424.14c1.862,0,3.43-1.358,3.43-3.43
	c0-2.072-1.568-3.388-3.43-3.388c-1.848,0-3.402,1.316-3.402,3.388C-182.361,422.782-180.807,424.14-178.959,424.14z M-172.162,424
	h1.33l2.73-6.538h-1.54l-1.848,4.704l-1.876-4.704h-1.526L-172.162,424z M-160.837,420.71c0-2.072-1.414-3.388-3.276-3.388
	s-3.36,1.316-3.36,3.388c0,2.072,1.498,3.43,3.36,3.43c1.232,0,2.45-0.532,3.024-1.68c-0.378-0.168-0.812-0.35-1.176-0.518
	c-0.336,0.602-1.05,0.938-1.778,0.938c-1.05,0-1.862-0.63-2.002-1.638h5.194C-160.837,421.102-160.837,420.864-160.837,420.71z
	 M-166.045,420.192c0.14-1.008,0.924-1.61,1.932-1.61c0.98,0,1.722,0.588,1.862,1.61H-166.045z M-157.872,421.648
	c0-1.736,0.518-2.968,1.75-2.968c0.28,0,0.602,0.042,0.966,0.224l0.238-1.33c-0.21-0.14-0.7-0.252-1.162-0.252
	c-0.812,0-1.456,0.476-1.792,1.638v-1.498h-1.442V424h1.442V421.648z M-146.275,418.736c0.84,0,1.386,0.602,1.386,1.624V424h1.442
	v-3.766c0-1.862-0.91-2.912-2.52-2.912c-0.602,0-1.582,0.168-2.198,1.302c-0.364-0.826-1.022-1.302-2.058-1.302
	c-0.518,0-1.624,0.21-2.058,1.12v-0.98h-1.442V424h1.442v-3.514c0-1.274,0.812-1.75,1.652-1.75c0.77,0,1.316,0.588,1.33,1.596V424
	h1.442v-3.514C-147.857,419.436-147.227,418.736-146.275,418.736z M-135.284,420.71c0-2.072-1.414-3.388-3.276-3.388
	s-3.36,1.316-3.36,3.388c0,2.072,1.498,3.43,3.36,3.43c1.232,0,2.45-0.532,3.024-1.68c-0.378-0.168-0.812-0.35-1.176-0.518
	c-0.336,0.602-1.05,0.938-1.778,0.938c-1.05,0-1.862-0.63-2.002-1.638h5.194C-135.284,421.102-135.284,420.864-135.284,420.71z
	 M-140.492,420.192c0.14-1.008,0.924-1.61,1.932-1.61c0.98,0,1.722,0.588,1.862,1.61H-140.492z M-132.32,420.486
	c0-1.288,0.826-1.75,1.68-1.75c0.84,0,1.372,0.588,1.372,1.624V424h1.442v-3.808c0-1.848-0.91-2.87-2.492-2.87
	c-0.728,0-1.624,0.364-2.002,1.12v-0.98h-1.442V424h1.442V420.486z M-123.913,414.984h-1.442v2.478h-1.176v1.19h1.176V424h1.442
	v-5.348h1.386v-1.19h-1.386V414.984z"/>
</svg>
