<?xml version="1.0" encoding="utf-8"?>
<!-- Generator: Adobe Illustrator 19.0.0, SVG Export Plug-In . SVG Version: 6.00 Build 0)  -->
<svg version="1.1" id="Layer_1" xmlns="http://www.w3.org/2000/svg" xmlns:xlink="http://www.w3.org/1999/xlink" x="0px" y="0px"
	 width="11.5px" height="12.5px" viewBox="-278.3 390.1 11.5 12.5" style="enable-background:new -278.3 390.1 11.5 12.5;"
	 xml:space="preserve">
<style type="text/css">
	.st0{fill:#FFFFFF;}
</style>
<path class="st0" d="M-273.1,402.6c-0.2,0-0.5-0.1-0.6-0.3c-0.3-0.3-0.3-0.9,0-1.3l3.8-3.8h-7.5c-0.5,0-0.9-0.4-0.9-0.9
	c0-0.5,0.4-0.9,0.9-0.9h7.5l-3.8-3.8c-0.2-0.2-0.3-0.4-0.3-0.6c0-0.2,0.1-0.5,0.3-0.6c0.2-0.2,0.4-0.3,0.6-0.3s0.5,0.1,0.6,0.3
	l5.4,5.4c0.2,0.2,0.3,0.4,0.3,0.6s-0.1,0.5-0.3,0.6l-5.4,5.4C-272.6,402.5-272.9,402.6-273.1,402.6z"/>
</svg>
