<svg width="11" height="17" viewBox="0 0 11 17" fill="none" xmlns="http://www.w3.org/2000/svg">
<path d="M10.7678 10.2486C11.1216 9.82455 11.0648 9.19395 10.6407 8.84008C10.2167 8.48621 9.5861 8.54309 9.23224 8.96711L10.7678 10.2486ZM5.5 15L4.73224 15.6407L5.5 16.5607L6.26776 15.6407L5.5 15ZM1.76776 8.96711C1.4139 8.54309 0.783291 8.48621 0.359266 8.84008C-0.0647577 9.19395 -0.121631 9.82455 0.232236 10.2486L1.76776 8.96711ZM6.5 1C6.5 0.447715 6.05228 -1.7256e-07 5.5 -1.96701e-07C4.94771 -2.20842e-07 4.5 0.447715 4.5 1L6.5 1ZM9.23224 8.96711L4.73224 14.3593L6.26776 15.6407L10.7678 10.2486L9.23224 8.96711ZM6.26776 14.3593L1.76776 8.96711L0.232236 10.2486L4.73224 15.6407L6.26776 14.3593ZM6.5 15L6.5 1L4.5 1L4.5 15L6.5 15Z" fill="white"/>
</svg>
