<svg width="28" height="11" viewBox="0 0 28 11" fill="none" xmlns="http://www.w3.org/2000/svg">
<path d="M21.2486 0.232237C20.8246 -0.121631 20.1939 -0.0647575 19.8401 0.359267C19.4862 0.783291 19.5431 1.4139 19.9671 1.76776L21.2486 0.232237ZM26 5.5L26.6407 6.26776L27.5607 5.5L26.6407 4.73224L26 5.5ZM19.9671 9.23224C19.5431 9.5861 19.4862 10.2167 19.8401 10.6407C20.1939 11.0648 20.8246 11.1216 21.2486 10.7678L19.9671 9.23224ZM1 4.5C0.447715 4.5 0 4.94772 0 5.5C0 6.05228 0.447715 6.5 1 6.5V4.5ZM19.9671 1.76776L25.3593 6.26776L26.6407 4.73224L21.2486 0.232237L19.9671 1.76776ZM25.3593 4.73224L19.9671 9.23224L21.2486 10.7678L26.6407 6.26776L25.3593 4.73224ZM26 4.5H1V6.5H26V4.5Z" fill="white"/>
</svg>
