<svg width="69" height="68" viewBox="0 0 69 68" fill="none" xmlns="http://www.w3.org/2000/svg">
<mask id="path-1-inside-1" fill="white">
<path fill-rule="evenodd" clip-rule="evenodd" d="M59.9476 39.7884C65.4345 35.7879 69 29.3103 69 22C69 9.84974 59.1503 0 47 0C40.1682 0 34.0638 3.11399 30.0286 8.00002C30.0191 8.00001 30.0095 8 30 8C13.4315 8 0 21.4315 0 38C0 54.5685 13.4315 68 30 68C45.9681 68 59.0224 55.5244 59.9476 39.7884ZM54.5656 42.6646C54.8508 41.1534 55 39.5941 55 38C55 24.1929 43.8071 13 30 13C28.9265 13 27.8689 13.0677 26.8311 13.1989C27.655 11.3134 28.7356 9.56574 30.0286 8.00002C46.584 8.01548 60 21.441 60 38C60 38.6004 59.9824 39.1967 59.9476 39.7884C58.3101 40.9823 56.5016 41.9556 54.5656 42.6646ZM54.5656 42.6646C52.3806 54.2425 42.213 63 30 63C16.1929 63 5 51.8071 5 38C5 25.2663 14.5201 14.7562 26.8311 13.1989C25.6533 15.8941 25 18.8707 25 22C25 34.1503 34.8497 44 47 44C49.6583 44 52.2066 43.5285 54.5656 42.6646Z"/>
</mask>
<path fill-rule="evenodd" clip-rule="evenodd" d="M59.9476 39.7884C65.4345 35.7879 69 29.3103 69 22C69 9.84974 59.1503 0 47 0C40.1682 0 34.0638 3.11399 30.0286 8.00002C30.0191 8.00001 30.0095 8 30 8C13.4315 8 0 21.4315 0 38C0 54.5685 13.4315 68 30 68C45.9681 68 59.0224 55.5244 59.9476 39.7884ZM54.5656 42.6646C54.8508 41.1534 55 39.5941 55 38C55 24.1929 43.8071 13 30 13C28.9265 13 27.8689 13.0677 26.8311 13.1989C27.655 11.3134 28.7356 9.56574 30.0286 8.00002C46.584 8.01548 60 21.441 60 38C60 38.6004 59.9824 39.1967 59.9476 39.7884C58.3101 40.9823 56.5016 41.9556 54.5656 42.6646ZM54.5656 42.6646C52.3806 54.2425 42.213 63 30 63C16.1929 63 5 51.8071 5 38C5 25.2663 14.5201 14.7562 26.8311 13.1989C25.6533 15.8941 25 18.8707 25 22C25 34.1503 34.8497 44 47 44C49.6583 44 52.2066 43.5285 54.5656 42.6646Z" fill="#CE0D17"/>
<path d="M64 22C64 27.6452 61.2534 32.6484 57.0018 35.7483L62.8933 43.8286C69.6155 38.9273 74 30.9754 74 22H64ZM47 5C56.3888 5 64 12.6112 64 22H74C74 7.08831 61.9117 -5 47 -5V5ZM33.8839 11.1839C37.0099 7.39869 41.7227 5 47 5V-5C38.6138 -5 31.1177 -1.1707 26.1734 4.81613L33.8839 11.1839ZM30.0331 3.00002C30.023 3.00001 30.0118 3 30 3V13C30.0073 13 30.0151 13 30.0241 13L30.0331 3.00002ZM30 3C10.67 3 -5 18.67 -5 38H5C5 24.1929 16.1929 13 30 13V3ZM-5 38C-5 57.33 10.67 73 30 73V63C16.1929 63 5 51.8071 5 38H-5ZM30 73C48.6312 73 63.8593 58.445 64.9389 40.0819L54.9562 39.495C54.1855 52.6037 43.305 63 30 63V73ZM59.4789 43.5918C59.8215 41.7764 60 39.9068 60 38H50C50 39.2815 49.8801 40.5303 49.6523 41.7373L59.4789 43.5918ZM60 38C60 21.4315 46.5685 8 30 8V18C41.0457 18 50 26.9543 50 38H60ZM30 8C28.7162 8 27.449 8.08093 26.2036 8.23847L27.4585 18.1594C28.2888 18.0544 29.1368 18 30 18V8ZM31.4127 15.201C32.0483 13.7466 32.883 12.3958 33.8839 11.1839L26.1734 4.81613C24.5881 6.73565 23.2617 8.88029 22.2494 11.1968L31.4127 15.201ZM65 38C65 18.6811 49.348 3.01806 30.0333 3.00002L30.024 13C43.82 13.0129 55 24.2009 55 38H65ZM64.9389 40.0819C64.9795 39.3926 65 38.6984 65 38H55C55 38.5025 54.9852 39.0009 54.9562 39.495L64.9389 40.0819ZM57.0018 35.7483C55.7352 36.6718 54.3386 37.423 52.8462 37.9695L56.285 47.3596C58.6646 46.4882 60.885 45.2928 62.8933 43.8286L57.0018 35.7483ZM30 68C44.6611 68 56.8563 57.4881 59.4789 43.5918L49.6523 41.7373C47.9049 50.9968 39.7649 58 30 58V68ZM0 38C0 54.5685 13.4315 68 30 68V58C18.9543 58 10 49.0457 10 38H0ZM26.2036 8.23847C11.4254 10.1079 0 22.7158 0 38H10C10 27.8169 17.6149 19.4046 27.4585 18.1594L26.2036 8.23847ZM30 22C30 19.5727 30.5057 17.2767 31.4127 15.201L22.2494 11.1968C20.801 14.5114 20 18.1687 20 22H30ZM47 39C37.6112 39 30 31.3888 30 22H20C20 36.9117 32.0883 49 47 49V39ZM52.8462 37.9695C51.0299 38.6347 49.0632 39 47 39V49C50.2535 49 53.3833 48.4223 56.285 47.3596L52.8462 37.9695Z" fill="#CE0D17" mask="url(#path-1-inside-1)"/>
</svg>
