<svg width="49" height="70" viewBox="0 0 49 70" fill="none" xmlns="http://www.w3.org/2000/svg">
<mask id="path-1-inside-1" fill="white">
<path d="M49 24.8603C49 38.5903 38.031 49.7206 24.5 49.7206C10.969 49.7206 0 38.5903 0 24.8603C0 11.1303 10.969 0 24.5 0C38.031 0 49 11.1303 49 24.8603Z"/>
</mask>
<path d="M44 24.8603C44 35.8979 35.201 44.7206 24.5 44.7206V54.7206C40.861 54.7206 54 41.2826 54 24.8603H44ZM24.5 44.7206C13.799 44.7206 5 35.8979 5 24.8603H-5C-5 41.2826 8.13903 54.7206 24.5 54.7206V44.7206ZM5 24.8603C5 13.8227 13.799 5 24.5 5V-5C8.13903 -5 -5 8.43799 -5 24.8603H5ZM24.5 5C35.201 5 44 13.8227 44 24.8603H54C54 8.43799 40.861 -5 24.5 -5V5Z" fill="#CE0D17" mask="url(#path-1-inside-1)"/>
<circle cx="25.6136" cy="59.1482" r="10.2455" fill="#CE0D17"/>
</svg>
