<svg width="165" height="167" viewBox="0 0 165 167" fill="none" xmlns="http://www.w3.org/2000/svg">
<mask id="mask0" mask-type="alpha" maskUnits="userSpaceOnUse" x="0" y="0" width="165" height="167">
<ellipse cx="82.5" cy="83.5" rx="82.5" ry="83" fill="url(#paint0_radial)"/>
<ellipse cx="82.5" cy="83.5" rx="82.5" ry="83" fill="url(#paint1_radial)"/>
<ellipse cx="82.5" cy="83.5" rx="82.5" ry="83" fill="url(#paint2_radial)"/>
</mask>
<g mask="url(#mask0)">
<ellipse cx="82.5" cy="83.5" rx="82.5" ry="83" fill="#CE0D17"/>
</g>
<path d="M109.467 92.4051L105.07 88.0246C104.364 87.3206 103.223 87.3255 102.522 88.0351C101.822 88.7448 101.826 89.8906 102.533 90.5944L106.929 94.9749C107.281 95.325 107.739 95.4998 108.198 95.4998C108.661 95.4998 109.125 95.3212 109.477 94.9644C110.178 94.2547 110.173 93.1089 109.467 92.4051Z" fill="white"/>
<path d="M106.776 90.062C106.311 89.5967 105.557 89.5967 105.091 90.062L105.089 90.0641C104.624 90.5294 104.625 91.283 105.09 91.7483C105.322 91.9808 105.627 92.097 105.932 92.097C106.238 92.097 106.543 91.9803 106.776 91.7474C107.242 91.282 107.242 90.5275 106.776 90.062Z" fill="white"/>
<path d="M96.6173 95.5565L108.177 83.9967C109.928 82.2458 109.928 79.3969 108.177 77.646C107.56 77.0286 106.806 76.63 106.012 76.448C106.284 75.8626 106.428 75.2201 106.428 74.5551C106.428 73.3556 105.961 72.228 105.113 71.3799C104.448 70.7146 103.61 70.285 102.701 70.1303C103.213 68.5712 102.851 66.7856 101.614 65.5482C100.933 64.8679 100.087 64.4533 99.2039 64.3018C99.3519 63.8527 99.4299 63.3786 99.4299 62.892C99.4299 61.6925 98.9628 60.5648 98.1147 59.7168C97.2666 58.8687 96.1389 58.4016 94.9395 58.4016C94.1779 58.4016 93.4455 58.5905 92.7949 58.9453L92.6799 58.8218C91.1856 57.216 89.0705 56.2952 86.8773 56.2952H77.52C76.862 56.2952 76.3283 56.8288 76.3283 57.4868V59.0495C76.3283 59.6748 76.4341 60.2836 76.6364 60.8561C76.0974 60.6322 75.5142 60.5147 74.9131 60.5147C73.7136 60.5147 72.5859 60.9818 71.7377 61.8298C70.4996 63.068 70.1383 64.8548 70.6512 66.4144C69.7673 66.5656 68.9198 66.9804 68.2388 67.6613C67.3908 68.5095 66.9236 69.6371 66.9236 70.8365C66.9236 71.3221 67.0014 71.7956 67.1488 72.2437C66.2409 72.3989 65.4043 72.8283 64.7398 73.493C63.3724 74.8604 63.073 76.8977 63.8416 78.5584C63.0277 78.7444 62.2802 79.1542 61.6752 79.7591C59.9245 81.5099 59.9245 84.3587 61.6752 86.1096L64.0526 88.4868L56.3489 96.1903C55.8835 96.6556 55.8835 97.4102 56.3489 97.8756C56.5816 98.1082 56.8866 98.2247 57.1915 98.2247C57.4963 98.2247 57.8013 98.1083 58.034 97.8756L65.8506 90.059C66.5196 90.4408 67.2788 90.645 68.07 90.645C69.2694 90.645 70.397 90.1778 71.2452 89.3296C72.1666 88.4083 72.6024 87.1827 72.554 85.9732C72.6144 85.9757 72.6748 85.9775 72.7352 85.9775C73.8849 85.9774 75.0352 85.5397 75.9104 84.6645C76.7584 83.8163 77.2256 82.6886 77.2256 81.4892C77.2256 81.4286 77.2236 81.3683 77.2212 81.308C77.2809 81.3104 77.3406 81.3123 77.4004 81.3123C78.5502 81.3123 79.7003 80.8746 80.5756 79.9993C81.4236 79.1511 81.8908 78.0234 81.8908 76.8241C81.8908 76.7634 81.8887 76.7031 81.8864 76.6428C81.9461 76.6452 82.0057 76.6471 82.0655 76.6471C83.2155 76.6471 84.3654 76.2094 85.2408 75.3341C86.8859 73.689 86.9849 71.0747 85.5386 69.3125L93.4488 61.4022C93.8469 61.0041 94.3759 60.785 94.9388 60.785C95.5017 60.785 96.0309 61.0041 96.4289 61.4022C96.827 61.8003 97.0461 62.3293 97.0461 62.8922C97.0461 63.455 96.827 63.9843 96.4288 64.3822L95.2625 65.5485L91.0309 69.7801C90.5655 70.2455 90.5655 71 91.0309 71.4655C91.2636 71.698 91.5686 71.8145 91.8734 71.8145C92.1783 71.8145 92.4833 71.6981 92.716 71.4655L96.9476 67.2338C97.7691 66.4122 99.106 66.4121 99.9277 67.2337C100.749 68.0554 100.749 69.3922 99.9277 70.2139L98.7613 71.3803L95.6961 74.4455C95.2307 74.9109 95.2307 75.6654 95.6961 76.1309C95.9287 76.3635 96.2338 76.48 96.5386 76.48C96.8435 76.48 97.1485 76.3636 97.3812 76.1309L100.446 73.0656C100.844 72.6675 101.374 72.4484 101.936 72.4484C102.499 72.4484 103.028 72.6675 103.427 73.0656C103.825 73.4637 104.044 73.9927 104.044 74.5556C104.044 75.1184 103.825 75.6477 103.426 76.0456L101.825 77.6465L100.361 79.1108C99.8958 79.5762 99.8958 80.3307 100.361 80.7962C100.594 81.0288 100.899 81.1453 101.204 81.1453C101.509 81.1453 101.814 81.0289 102.046 80.7962L103.512 79.3308C104.333 78.5105 105.669 78.5106 106.491 79.3318C107.312 80.1534 107.312 81.4903 106.491 82.312L94.9307 93.8719C92.028 96.7747 88.1701 98.4552 84.0677 98.6041C83.7662 98.6151 83.4797 98.7401 83.2667 98.9541L75.5879 106.672C75.1234 107.139 75.1247 107.893 75.591 108.358C75.8235 108.589 76.1277 108.705 76.432 108.705C76.7376 108.705 77.0435 108.588 77.2761 108.355L82.1307 103.471C84.1258 104.751 86.4722 105.36 88.858 105.202L95.0054 111.349C95.2381 111.582 95.5431 111.698 95.848 111.698C96.153 111.698 96.4579 111.582 96.6905 111.349C97.1559 110.884 97.1559 110.129 96.6905 109.664L90.1545 103.127C89.907 102.88 89.5632 102.753 89.2145 102.782L88.8367 102.813C87.0928 102.956 85.3691 102.574 83.8641 101.731L84.6299 100.962C89.1592 100.683 93.3996 98.7743 96.6173 95.5565ZM69.5601 87.6445C69.162 88.0427 68.6328 88.2618 68.0701 88.2618C67.5072 88.2618 66.9781 88.0427 66.5801 87.6445L63.3602 84.4247C62.5386 83.6032 62.5386 82.2663 63.3602 81.4446C63.7583 81.0464 64.2875 80.8273 64.8503 80.8273C65.4131 80.8273 65.9424 81.0464 66.3403 81.4446L69.5602 84.6643C70.3817 85.4859 70.3817 86.8228 69.5601 87.6445ZM74.2255 82.9791C73.4038 83.8007 72.0667 83.8007 71.2453 82.9791L68.0254 79.7592L66.4244 78.1582C65.6028 77.3366 65.6028 75.9997 66.4244 75.1781C66.8225 74.78 67.3517 74.5609 67.9144 74.5609C68.4773 74.5609 69.0064 74.78 69.4044 75.1781L74.2251 79.9989C74.6233 80.3971 74.8425 80.9262 74.8425 81.489C74.8425 82.0518 74.6234 82.581 74.2255 82.9791ZM78.8907 78.3138C78.069 79.1353 76.732 79.1354 75.9105 78.3138L69.9233 72.3266C69.5253 71.9286 69.3062 71.3996 69.3062 70.8366C69.3062 70.2738 69.5253 69.7446 69.9235 69.3467C70.3342 68.9359 70.874 68.7305 71.4134 68.7305C71.9527 68.7305 72.4918 68.9356 72.9024 69.3457L75.6312 72.0745L78.8905 75.3337C79.2884 75.7318 79.5076 76.2608 79.5076 76.8237C79.5078 77.3866 79.2887 77.9159 78.8907 78.3138ZM83.556 73.6485C82.7344 74.4701 81.3975 74.4701 80.5759 73.6485L74.5888 67.6613L74.5867 67.6594L73.4224 66.495C72.6008 65.6733 72.6008 64.3366 73.4224 63.5149C73.8332 63.1039 74.3729 62.8985 74.9125 62.8985C75.4521 62.8985 75.9918 63.1039 76.4024 63.5149L83.5558 70.6682C83.9539 71.0662 84.173 71.5953 84.173 72.1581C84.1731 72.7212 83.9542 73.2505 83.556 73.6485ZM83.8693 67.6114L80.5963 64.3384C80.9674 64.4176 81.349 64.4596 81.7374 64.4595C81.7461 64.4595 81.7549 64.4595 81.7638 64.4595L85.0339 64.4441C85.692 64.4411 86.2231 63.905 86.22 63.2469C86.2169 62.5907 85.684 62.0609 85.0285 62.0609H85.0227L81.7526 62.0762C81.7476 62.0762 81.7428 62.0762 81.7378 62.0762C80.932 62.0762 80.1742 61.7635 79.6028 61.1948C79.0278 60.6225 78.7113 59.8607 78.7113 59.0493V58.6783H86.8769C88.4109 58.6783 89.89 59.3223 90.9351 60.4453L90.9836 60.4974L83.8693 67.6114Z" fill="white"/>
<defs>
<radialGradient id="paint0_radial" cx="0" cy="0" r="1" gradientUnits="userSpaceOnUse" gradientTransform="translate(122.5 141) rotate(-123.873) scale(130.078 115.313)">
<stop stop-color="#D21C26"/>
<stop offset="1" stop-color="#FF959B"/>
</radialGradient>
<radialGradient id="paint1_radial" cx="0" cy="0" r="1" gradientUnits="userSpaceOnUse" gradientTransform="translate(39.5 159) rotate(-48.0448) scale(133.124 118.268)">
<stop stop-color="#8C0910"/>
<stop offset="1" stop-color="#FF1F2B" stop-opacity="0"/>
</radialGradient>
<radialGradient id="paint2_radial" cx="0" cy="0" r="1" gradientUnits="userSpaceOnUse" gradientTransform="translate(43.5 38.5) rotate(55.157) scale(110.269 107.379)">
<stop stop-color="#FFAEAE"/>
<stop offset="1" stop-color="white" stop-opacity="0"/>
</radialGradient>
</defs>
</svg>
