<svg width="165" height="167" viewBox="0 0 165 167" fill="none" xmlns="http://www.w3.org/2000/svg">
<mask id="mask0" mask-type="alpha" maskUnits="userSpaceOnUse" x="0" y="0" width="165" height="167">
<ellipse cx="82.5" cy="83.5" rx="82.5" ry="83" fill="#CE0D17"/>
</mask>
<g mask="url(#mask0)">
<g filter="url(#filter0_i)">
<ellipse cx="82.5" cy="83.5" rx="82.5" ry="83" fill="#CE0D17"/>
</g>
<ellipse cx="82.5" cy="83.5" rx="82.5" ry="83" fill="#CE0D17"/>
</g>
<path d="M75.5205 76.1393C74.5988 75.3098 73.4928 74.6646 72.2024 74.5724C72.1102 73.3742 71.5572 72.176 70.7276 71.3464L70.6355 71.2543C69.6216 70.2404 68.3312 69.6874 66.8565 69.6874C65.3818 69.6874 63.9992 70.3326 63.0775 71.2543C62.248 72.0838 61.6028 73.282 61.5106 74.5724C60.2203 74.6646 59.1142 75.2176 58.1925 76.0471L58.1003 76.1393C57.0865 77.1532 56.5334 78.4435 56.5334 79.9183C56.5334 81.393 57.1786 82.7755 58.1003 83.6972C59.022 84.6189 60.1281 85.172 61.5106 85.2641C61.6028 86.5545 62.1558 87.7527 63.0775 88.5823C64.0914 89.5961 65.3818 90.1492 66.8565 90.1492C68.3312 90.1492 69.7138 89.504 70.6355 88.5823C71.465 87.6606 72.1102 86.5545 72.2024 85.2641C73.4928 85.172 74.691 84.6189 75.5205 83.6972C76.5344 82.6834 77.0874 81.393 77.0874 79.9183C77.0874 78.4435 76.4422 77.061 75.5205 76.1393ZM73.2162 81.3008C72.8476 81.6695 72.3867 81.8538 71.8337 81.8538H70.5433C69.6216 81.8538 68.7921 82.5912 68.7921 83.6051V84.8033C68.7921 85.3563 68.6077 85.8172 68.2391 86.1858C67.8704 86.5545 67.4095 86.7389 66.8565 86.7389C66.3035 86.7389 65.8426 86.5545 65.4739 86.1858C65.1053 85.8172 64.9209 85.3563 64.9209 84.8033V83.5129C64.9209 82.5912 64.1836 81.7617 63.1697 81.7617H61.8793C61.3263 81.7617 60.8654 81.5773 60.4968 81.2086C60.2203 80.9321 59.9437 80.4713 59.9437 79.9183C59.9437 79.3652 60.1281 78.9044 60.4968 78.5357C60.4968 78.5357 60.4968 78.5357 60.5889 78.4435C60.9576 78.167 61.4185 77.9827 61.8793 77.9827H63.1697C64.0914 77.9827 64.9209 77.2453 64.9209 76.2315V74.9411C64.9209 74.3881 65.1053 73.9272 65.4739 73.5585C65.8426 73.1898 66.3035 73.0055 66.8565 73.0055C67.4095 73.0055 67.8704 73.1898 68.2391 73.5585C68.2391 73.5585 68.2391 73.5585 68.3312 73.6507C68.6077 74.0194 68.7921 74.4802 68.7921 74.9411V76.2315C68.7921 77.1532 69.5294 77.9827 70.5433 77.9827H71.8337C72.3867 77.9827 72.8476 78.167 73.2162 78.5357C73.5849 78.9044 73.7693 79.3652 73.7693 79.9183C73.7693 80.4713 73.5849 80.9321 73.2162 81.3008Z" fill="white"/>
<path d="M100.038 76.6002C101.819 76.6002 103.264 75.1559 103.264 73.3743C103.264 71.5926 101.819 70.1483 100.038 70.1483C98.2561 70.1483 96.8118 71.5926 96.8118 73.3743C96.8118 75.1559 98.2561 76.6002 100.038 76.6002Z" fill="white"/>
<path d="M100.038 89.6882C101.819 89.6882 103.264 88.2439 103.264 86.4623C103.264 84.6806 101.819 83.2363 100.038 83.2363C98.2561 83.2363 96.8118 84.6806 96.8118 86.4623C96.8118 88.2439 98.2561 89.6882 100.038 89.6882Z" fill="white"/>
<path d="M93.4935 83.1438C95.2752 83.1438 96.7195 81.6995 96.7195 79.9178C96.7195 78.1362 95.2752 76.6919 93.4935 76.6919C91.7119 76.6919 90.2676 78.1362 90.2676 79.9178C90.2676 81.6995 91.7119 83.1438 93.4935 83.1438Z" fill="white"/>
<path d="M106.582 83.1438C108.363 83.1438 109.808 81.6995 109.808 79.9178C109.808 78.1362 108.363 76.6919 106.582 76.6919C104.8 76.6919 103.356 78.1362 103.356 79.9178C103.356 81.6995 104.8 83.1438 106.582 83.1438Z" fill="white"/>
<path d="M120.96 94.1125C120.776 89.8727 120.039 85.172 118.932 80.7478C117.826 76.508 116.444 72.5447 114.785 69.5031C108.333 58.1661 101.328 59.9174 92.9405 62.1295C90.2676 62.7747 87.4103 63.512 84.4609 63.7885H83.5392C80.5897 63.512 77.7324 62.7747 75.0595 62.1295C66.672 60.0095 59.6671 58.1661 53.2152 69.5952C51.5561 72.6369 50.0814 76.6002 49.0675 80.84C47.9615 85.2642 47.2241 89.9648 47.0398 94.2047C46.8554 98.9053 47.3163 102.316 48.3302 104.712C49.344 106.924 50.8188 108.307 52.7543 108.86C54.5056 109.321 56.5333 109.136 58.6532 108.215C62.2478 106.74 66.3955 103.606 70.451 99.827C73.3083 97.0619 78.6541 95.6794 84 95.6794C89.3459 95.6794 94.6917 97.0619 97.549 99.827C101.604 103.606 105.752 106.74 109.347 108.215C111.467 109.044 113.494 109.321 115.246 108.86C117.089 108.307 118.656 107.016 119.67 104.62C120.684 102.316 121.145 98.9053 120.96 94.1125ZM116.536 103.33C115.983 104.62 115.246 105.357 114.324 105.634C113.31 105.91 112.02 105.726 110.545 105.173C107.319 103.883 103.54 101.025 99.8533 97.5228C96.3508 94.0203 90.1754 92.2691 84 92.2691C77.8246 92.2691 71.6492 94.0203 68.0546 97.3385C64.2756 100.841 60.4966 103.79 57.3628 104.989C55.8881 105.542 54.5977 105.818 53.5839 105.449C52.6622 105.173 51.9248 104.436 51.3718 103.145C50.6344 101.394 50.2657 98.5367 50.4501 94.2968C50.6344 90.3335 51.2796 85.8172 52.3856 81.5774C53.3995 77.614 54.6899 73.9272 56.2568 71.1621C61.3261 62.0373 67.225 63.512 74.23 65.3554C77.0872 66.0928 80.0367 66.8301 83.2626 67.1066C83.3548 67.1066 83.3548 67.1066 83.447 67.1066H84.4609C84.553 67.1066 84.553 67.1066 84.6452 67.1066C87.9633 66.8301 90.9128 66.0928 93.77 65.3554C100.775 63.6042 106.674 62.0373 111.743 71.1621C113.31 73.9272 114.6 77.5219 115.614 81.5774C116.628 85.8172 117.366 90.2414 117.55 94.2968C117.734 98.5367 117.366 101.394 116.536 103.33Z" fill="white"/>
<defs>
<filter id="filter0_i" x="0" y="0.5" width="165" height="170" filterUnits="userSpaceOnUse" color-interpolation-filters="sRGB">
<feFlood flood-opacity="0" result="BackgroundImageFix"/>
<feBlend mode="normal" in="SourceGraphic" in2="BackgroundImageFix" result="shape"/>
<feColorMatrix in="SourceAlpha" type="matrix" values="0 0 0 0 0 0 0 0 0 0 0 0 0 0 0 0 0 0 127 0" result="hardAlpha"/>
<feOffset dy="4"/>
<feGaussianBlur stdDeviation="2"/>
<feComposite in2="hardAlpha" operator="arithmetic" k2="-1" k3="1"/>
<feColorMatrix type="matrix" values="0 0 0 0 0 0 0 0 0 0 0 0 0 0 0 0 0 0 0.25 0"/>
<feBlend mode="normal" in2="shape" result="effect1_innerShadow"/>
</filter>
</defs>
</svg>
