<svg width="92" height="96" viewBox="0 0 92 96" fill="none" xmlns="http://www.w3.org/2000/svg">
<g filter="url(#filter0_d)">
<path d="M51 36L41 43L41 29L51 36Z" fill="white"/>
</g>
<path d="M20.132 20.0747C23.4126 15.105 28.1921 11.3106 33.7763 9.24262C39.3605 7.17466 45.4586 6.94087 51.1848 8.57522C56.911 10.2096 61.967 13.6269 65.6184 18.3309C69.2698 23.0349 71.3264 28.7804 71.4895 34.733C71.6526 40.6856 69.9137 46.5352 66.5254 51.4321C63.1371 56.329 58.2758 60.0181 52.6477 61.9635C47.0196 63.909 40.9179 64.0095 35.2288 62.2505C29.5397 60.4914 24.5596 56.9644 21.0118 52.1818" stroke="#F1111D" stroke-width="3" stroke-linecap="round"/>
<defs>
<filter id="filter0_d" x="0.411766" y="0.588237" width="91.1765" height="95.1765" filterUnits="userSpaceOnUse" color-interpolation-filters="sRGB">
<feFlood flood-opacity="0" result="BackgroundImageFix"/>
<feColorMatrix in="SourceAlpha" type="matrix" values="0 0 0 0 0 0 0 0 0 0 0 0 0 0 0 0 0 0 127 0"/>
<feOffset dy="12.1765"/>
<feGaussianBlur stdDeviation="20.2941"/>
<feColorMatrix type="matrix" values="0 0 0 0 0 0 0 0 0 0 0 0 0 0 0 0 0 0 0.1 0"/>
<feBlend mode="normal" in2="BackgroundImageFix" result="effect1_dropShadow"/>
<feBlend mode="normal" in="SourceGraphic" in2="effect1_dropShadow" result="shape"/>
</filter>
</defs>
</svg>
