<svg width="196" height="196" viewBox="0 0 196 196" fill="none" xmlns="http://www.w3.org/2000/svg">
<g opacity="0.8">
<circle opacity="0.1" cx="1.83106" cy="145.815" r="1.83106" transform="rotate(-90 1.83106 145.815)" fill="white"/>
<circle opacity="0.5" cx="1.83106" cy="98.1533" r="1.83106" transform="rotate(-90 1.83106 98.1533)" fill="white"/>
<circle cx="1.83106" cy="50.4912" r="1.83106" transform="rotate(-90 1.83106 50.4912)" fill="white"/>
<circle opacity="0.1" cx="1.83106" cy="2.8291" r="1.83106" transform="rotate(-90 1.83106 2.8291)" fill="white"/>
<circle opacity="0.5" cx="65.8311" cy="2.8291" r="1.83106" transform="rotate(-90 65.8311 2.8291)" fill="white"/>
<circle cx="65.958" cy="145.815" r="1.83106" transform="rotate(-90 65.958 145.815)" fill="white"/>
<circle opacity="0.5" cx="65.958" cy="98.1533" r="1.83106" transform="rotate(-90 65.958 98.1533)" fill="white"/>
<circle cx="65.958" cy="50.4912" r="1.83106" transform="rotate(-90 65.958 50.4912)" fill="white"/>
<circle cx="129.831" cy="145.815" r="1.83106" transform="rotate(-90 129.831 145.815)" fill="white"/>
<circle cx="129.831" cy="98.1533" r="1.83106" transform="rotate(-90 129.831 98.1533)" fill="white"/>
<circle opacity="0.2" cx="129.831" cy="50.4912" r="1.83106" transform="rotate(-90 129.831 50.4912)" fill="white"/>
<circle cx="129.831" cy="2.8291" r="1.83106" transform="rotate(-90 129.831 2.8291)" fill="white"/>
<circle cx="193.831" cy="145.815" r="1.83106" transform="rotate(-90 193.831 145.815)" fill="white"/>
<circle cx="1.83106" cy="193.478" r="1.83106" transform="rotate(-90 1.83106 193.478)" fill="white"/>
<circle cx="65.958" cy="193.478" r="1.83106" transform="rotate(-90 65.958 193.478)" fill="white"/>
<circle cx="129.831" cy="193.478" r="1.83106" transform="rotate(-90 129.831 193.478)" fill="white"/>
<circle cx="193.831" cy="193.478" r="1.83106" transform="rotate(-90 193.831 193.478)" fill="white"/>
<circle cx="193.831" cy="50.4912" r="1.83106" transform="rotate(-90 193.831 50.4912)" fill="white"/>
<circle cx="193.831" cy="2.8291" r="1.83106" transform="rotate(-90 193.831 2.8291)" fill="white"/>
</g>
</svg>
