<svg width="52" height="54" viewBox="0 0 52 54" fill="none" xmlns="http://www.w3.org/2000/svg">
<path opacity="0.2" d="M39.6203 0.500003C33.5287 0.500002 29.2057 4.65298 29.2057 11.3769C29.2057 17.903 34.3147 21.4627 39.6203 21.4627C40.2098 21.4627 40.7993 21.4627 41.3888 21.2649C41.3888 32.3395 36.4763 39.2612 26.4546 45.7873L31.1707 53.5C44.7294 45.5895 52 34.1194 52 18.2985C52 6.82835 47.4804 0.500003 39.6203 0.500003ZM13.1657 0.5C7.07411 0.5 2.75104 4.65298 2.75104 11.3769C2.75104 17.903 7.86012 21.4627 13.1657 21.4627C13.7552 21.4627 14.3447 21.4627 14.9342 21.2649C14.9342 32.3395 10.0216 39.2612 -3.14043e-06 45.7873L4.71608 53.5C18.2748 45.5895 25.5454 34.1194 25.5454 18.2985C25.5454 6.82835 21.0258 0.500001 13.1657 0.5Z" fill="url(#paint0_linear)"/>
<defs>
<linearGradient id="paint0_linear" x1="42.4645" y1="0.499966" x2="10.5502" y2="46.3978" gradientUnits="userSpaceOnUse">
<stop stop-color="#ED1D2F"/>
<stop offset="1" stop-color="#ED1D2F" stop-opacity="0"/>
</linearGradient>
</defs>
</svg>
