<svg width="6" height="55" viewBox="0 0 6 55" fill="none" xmlns="http://www.w3.org/2000/svg">
<path d="M3.89001 9.98008C3.89001 9.43408 3.48401 9.00008 2.93801 9.00008C2.39201 9.00008 2.00001 9.43408 2.00001 9.98008C2.00001 10.5401 2.39201 10.9741 2.93801 10.9741C3.48401 10.9741 3.89001 10.5401 3.89001 9.98008Z" fill="#EA4444"/>
<path d="M3.89001 15.3788C3.89001 14.8328 3.48401 14.3988 2.93801 14.3988C2.39201 14.3988 2.00001 14.8328 2.00001 15.3788C2.00001 15.9388 2.39201 16.3728 2.93801 16.3728C3.48401 16.3728 3.89001 15.9388 3.89001 15.3788Z" fill="#EA4444"/>
<path d="M3.89001 20.7776C3.89001 20.2316 3.48401 19.7976 2.93801 19.7976C2.39201 19.7976 2.00001 20.2316 2.00001 20.7776C2.00001 21.3376 2.39201 21.7716 2.93801 21.7716C3.48401 21.7716 3.89001 21.3376 3.89001 20.7776Z" fill="#EA4444"/>
<path d="M3.89001 26.1763C3.89001 25.6303 3.48401 25.1963 2.93801 25.1963C2.39201 25.1963 2.00001 25.6303 2.00001 26.1763C2.00001 26.7363 2.39201 27.1703 2.93801 27.1703C3.48401 27.1703 3.89001 26.7363 3.89001 26.1763Z" fill="#EA4444"/>
<path d="M3.89001 31.5751C3.89001 31.0291 3.48401 30.5951 2.93801 30.5951C2.39201 30.5951 2.00001 31.0291 2.00001 31.5751C2.00001 32.1351 2.39201 32.5691 2.93801 32.5691C3.48401 32.5691 3.89001 32.1351 3.89001 31.5751Z" fill="#EA4444"/>
<path d="M3.89001 36.9738C3.89001 36.4278 3.48401 35.9938 2.93801 35.9938C2.39201 35.9938 2.00001 36.4278 2.00001 36.9738C2.00001 37.5338 2.39201 37.9678 2.93801 37.9678C3.48401 37.9678 3.89001 37.5338 3.89001 36.9738Z" fill="#EA4444"/>
<path d="M3.89001 42.3726C3.89001 41.8266 3.48401 41.3926 2.93801 41.3926C2.39201 41.3926 2.00001 41.8266 2.00001 42.3726C2.00001 42.9326 2.39201 43.3666 2.93801 43.3666C3.48401 43.3666 3.89001 42.9326 3.89001 42.3726Z" fill="#EA4444"/>
<path d="M3.89001 47.7713C3.89001 47.2253 3.48401 46.7913 2.93801 46.7913C2.39201 46.7913 2.00001 47.2253 2.00001 47.7713C2.00001 48.3313 2.39201 48.7653 2.93801 48.7653C3.48401 48.7653 3.89001 48.3313 3.89001 47.7713Z" fill="#EA4444"/>
<path d="M3.89001 53.1701C3.89001 52.6241 3.48401 52.1901 2.93801 52.1901C2.39201 52.1901 2.00001 52.6241 2.00001 53.1701C2.00001 53.7301 2.39201 54.1641 2.93801 54.1641C3.48401 54.1641 3.89001 53.7301 3.89001 53.1701Z" fill="#EA4444"/>
<path d="M6 3C6 4.65685 4.65685 6 3 6C1.34315 6 0 4.65685 0 3C0 1.34315 1.34315 0 3 0C4.65685 0 6 1.34315 6 3Z" fill="#EA4444"/>
</svg>
