<svg width="16" height="15" viewBox="0 0 16 15" fill="none" xmlns="http://www.w3.org/2000/svg">
<path d="M14.9063 3.91891C14.2327 2.7698 13.3191 1.86005 12.1652 1.18946C11.0111 0.518824 9.75118 0.183594 8.38452 0.183594C7.01804 0.183594 5.7577 0.518927 4.60385 1.18946C3.44982 1.86002 2.53624 2.7698 1.86271 3.91891C1.18927 5.06799 0.852539 6.32278 0.852539 7.68327C0.852539 9.31752 1.33138 10.7871 2.2893 12.0923C3.24712 13.3977 4.48448 14.3009 6.00128 14.8022C6.17784 14.8348 6.30854 14.8119 6.39352 14.7339C6.47854 14.6559 6.521 14.5581 6.521 14.4411C6.521 14.4215 6.51931 14.2458 6.51605 13.9137C6.51268 13.5817 6.5111 13.292 6.5111 13.0448L6.28552 13.0836C6.1417 13.1099 5.96026 13.121 5.74121 13.1178C5.52227 13.1148 5.29497 13.0919 5.05964 13.0495C4.8242 13.0073 4.60522 12.9097 4.40252 12.7567C4.19992 12.6037 4.0561 12.4034 3.97108 12.1562L3.87301 11.9315C3.80765 11.7819 3.70473 11.6157 3.56414 11.4335C3.42354 11.2512 3.28137 11.1276 3.13754 11.0625L3.06888 11.0135C3.02312 10.981 2.98067 10.9418 2.9414 10.8963C2.90218 10.8507 2.87281 10.8052 2.85319 10.7596C2.83354 10.7139 2.84983 10.6764 2.90221 10.6471C2.95459 10.6177 3.04926 10.6034 3.18663 10.6034L3.3827 10.6326C3.51347 10.6587 3.67523 10.7366 3.86817 10.8669C4.06101 10.9971 4.21954 11.1663 4.34378 11.3746C4.49424 11.6416 4.6755 11.845 4.88809 11.985C5.10051 12.125 5.31469 12.1949 5.53041 12.1949C5.74613 12.1949 5.93244 12.1786 6.08942 12.1462C6.24623 12.1136 6.39335 12.0647 6.53072 11.9996C6.58956 11.5633 6.74977 11.228 7.01121 10.9937C6.63858 10.9547 6.30356 10.896 6.00598 10.8179C5.70858 10.7397 5.40125 10.6128 5.0842 10.4369C4.76698 10.2612 4.50382 10.043 4.29466 9.78269C4.08547 9.52227 3.91379 9.18037 3.77986 8.7573C3.64586 8.33406 3.57884 7.84584 3.57884 7.29249C3.57884 6.50461 3.83715 5.83415 4.35367 5.28073C4.11171 4.68839 4.13456 4.02436 4.42227 3.28871C4.61188 3.23005 4.89307 3.27407 5.2657 3.4205C5.6384 3.56699 5.91128 3.69248 6.08461 3.79653C6.25794 3.90054 6.39682 3.98869 6.50145 4.06017C7.10962 3.89097 7.73723 3.80635 8.38445 3.80635C9.03168 3.80635 9.65943 3.89097 10.2676 4.06017L10.6403 3.82591C10.8951 3.6696 11.1961 3.52636 11.5424 3.39614C11.8889 3.266 12.1539 3.23015 12.3371 3.28881C12.6312 4.0245 12.6574 4.6885 12.4153 5.28084C12.9318 5.83425 13.1902 6.50488 13.1902 7.29259C13.1902 7.84594 13.123 8.3357 12.9892 8.76219C12.8552 9.18875 12.6821 9.5303 12.4696 9.78758C12.257 10.0448 11.9921 10.2613 11.6751 10.437C11.358 10.6128 11.0505 10.7397 10.7531 10.8179C10.4556 10.8961 10.1206 10.9548 9.74795 10.9939C10.0878 11.2867 10.2578 11.749 10.2578 12.3805V14.4408C10.2578 14.5578 10.2986 14.6556 10.3805 14.7336C10.4622 14.8116 10.5912 14.8345 10.7678 14.8019C12.2848 14.3007 13.5222 13.3974 14.48 12.0921C15.4376 10.7868 15.9166 9.31725 15.9166 7.68299C15.9163 6.32268 15.5794 5.06799 14.9063 3.91891Z" fill="#85878F"/>
</svg>
