<svg width="18" height="14" viewBox="0 0 18 14" fill="none" xmlns="http://www.w3.org/2000/svg">
<path d="M17.1314 1.6804C16.5031 1.94435 15.8288 2.12335 15.1204 2.20327C15.8438 1.79266 16.3975 1.14138 16.6599 0.36771C15.9814 0.74796 15.2324 1.02407 14.4344 1.17375C13.7954 0.527516 12.8864 0.125 11.8782 0.125C9.94402 0.125 8.37574 1.61165 8.37574 3.44416C8.37574 3.70406 8.40667 3.95791 8.46643 4.20064C5.55606 4.06207 2.97535 2.74028 1.24812 0.731776C0.946188 1.22127 0.774427 1.79163 0.774427 2.40047C0.774427 3.55238 1.39321 4.56875 2.33205 5.16339C1.75807 5.1452 1.21824 4.99552 0.745638 4.74673V4.78819C0.745638 6.39619 1.95332 7.73821 3.55466 8.04365C3.26127 8.11849 2.95189 8.15996 2.63183 8.15996C2.40567 8.15996 2.18696 8.13872 1.97251 8.09826C2.41845 9.41804 3.71149 10.3778 5.24351 10.4041C4.04542 11.2941 2.53475 11.823 0.893938 11.823C0.611231 11.823 0.332764 11.8068 0.0585938 11.7775C1.60874 12.721 3.44907 13.2712 5.42701 13.2712C11.8697 13.2712 15.3914 8.21255 15.3914 3.82544L15.3797 3.39564C16.0678 2.93039 16.6631 2.34586 17.1314 1.6804Z" fill="#85878F"/>
</svg>
