<svg width="16" height="16" viewBox="0 0 16 16" fill="none" xmlns="http://www.w3.org/2000/svg">
<path fill-rule="evenodd" clip-rule="evenodd" d="M8.4264 9.08052V9.05859C8.4217 9.06595 8.41521 9.0733 8.41113 9.08052H8.4264Z" fill="#85878F"/>
<path fill-rule="evenodd" clip-rule="evenodd" d="M0.267578 0.34375V15.3438H15.3319V0.34375H0.267578ZM4.95315 12.8054H2.71813V6.10988H4.95315V12.8054ZM3.83564 5.19604H3.82087C3.07113 5.19604 2.58517 4.68172 2.58517 4.03886C2.58517 3.38189 3.08534 2.88215 3.85027 2.88215C4.61538 2.88215 5.08555 3.38189 5.10018 4.03886C5.10018 4.68172 4.61538 5.19604 3.83564 5.19604ZM13.0143 12.8054H10.7787V9.22326C10.7787 8.32355 10.4557 7.70941 9.64656 7.70941C9.02863 7.70941 8.66142 8.12292 8.49966 8.52346C8.44086 8.66654 8.42549 8.86543 8.42549 9.06607V12.8054H6.18945C6.18945 12.8054 6.21941 6.73804 6.18945 6.10992H8.42549V7.05867C8.72257 6.6035 9.25274 5.95273 10.4403 5.95273C11.9116 5.95273 13.0143 6.90943 13.0143 8.96585V12.8054Z" fill="#85878F"/>
</svg>
