<svg width="17" height="12" viewBox="0 0 17 12" fill="none" xmlns="http://www.w3.org/2000/svg">
<path d="M15.8593 1.12625C15.4235 0.306 14.9504 0.155125 13.9873 0.09775C13.0252 0.0286875 10.6059 0 8.50994 0C6.40998 0 3.98964 0.0286876 3.02854 0.0966876C2.06744 0.155125 1.59341 0.304937 1.15354 1.12625C0.704619 1.94544 0.473633 3.35644 0.473633 5.84056C0.473633 5.84269 0.473633 5.84375 0.473633 5.84375C0.473633 5.84587 0.473633 5.84694 0.473633 5.84694V5.84906C0.473633 8.32256 0.704619 9.74419 1.15354 10.5549C1.59341 11.3751 2.06643 11.5239 3.02754 11.5929C3.98964 11.6524 6.40998 11.6875 8.50994 11.6875C10.6059 11.6875 13.0252 11.6524 13.9883 11.594C14.9514 11.5249 15.4245 11.3762 15.8603 10.5559C16.3133 9.74525 16.5422 8.32362 16.5422 5.85012C16.5422 5.85012 16.5422 5.84694 16.5422 5.84481C16.5422 5.84481 16.5422 5.84269 16.5422 5.84163C16.5422 3.35644 16.3133 1.94544 15.8593 1.12625ZM6.49936 9.03125V2.65625L11.5208 5.84375L6.49936 9.03125Z" fill="#85878F"/>
</svg>
